<?xml version="1.0" encoding="UTF-8" standalone="no"?>
<svg
   width="58"
   height="58"
   viewBox="0 0 58 58"
   fill="none"
   version="1.1"
   id="svg6"
   sodipodi:docname="Bilgewater_normal_1693031563-Bilgewater-gray.svg"
   inkscape:version="1.3 (0e150ed6c4, 2023-07-21)"
   xmlns:inkscape="http://www.inkscape.org/namespaces/inkscape"
   xmlns:sodipodi="http://sodipodi.sourceforge.net/DTD/sodipodi-0.dtd"
   xmlns="http://www.w3.org/2000/svg"
   xmlns:svg="http://www.w3.org/2000/svg">
  <defs
     id="defs6" />
  <sodipodi:namedview
     id="namedview6"
     pagecolor="#ffffff"
     bordercolor="#000000"
     borderopacity="0.25"
     inkscape:showpageshadow="2"
     inkscape:pageopacity="0.0"
     inkscape:pagecheckerboard="0"
     inkscape:deskcolor="#d1d1d1"
     showgrid="false"
     inkscape:zoom="4.0689655"
     inkscape:cx="29"
     inkscape:cy="28.877119"
     inkscape:window-width="1366"
     inkscape:window-height="705"
     inkscape:window-x="-8"
     inkscape:window-y="-8"
     inkscape:window-maximized="1"
     inkscape:current-layer="svg6" />
  <path
     id="path6"
     d="m 23.673965,19.604201 5.813941,3.164748 0.581466,0.3181 0.877534,-0.477141 4.903586,-2.66568 0.619735,-0.340027 c 0.71302,-0.38948 1.338359,-0.88312 1.892326,-1.442659 1.283474,-1.299814 2.122601,-3.0057 2.314595,-4.870514 0.06031,-0.597815 0.05485,-1.190194 -0.01112,-1.771674 -0.04929,-0.455233 -0.153456,-0.905026 -0.279676,-1.338343 C 40.007915,8.8810649 39.316821,7.6743993 38.329547,6.6871184 L 37.287427,5.6450885 33.102447,1.4600569 C 32.263326,0.62086503 31.16082,0.204 30.0638,0.204 c -1.096908,0 -2.204855,0.41686503 -3.044101,1.2560569 l -1.140768,1.1408512 c -1.678367,1.6783256 -1.678367,4.4043186 0,6.0827014 l 1.140768,1.1408917 c 0.351073,0.3510618 0.751421,0.6253198 1.179293,0.8282348 v 7.174351 l -2.753367,-1.497406 c -1.278026,-0.696692 -2.13364,-1.980146 -2.287247,-3.428129 -0.09867,-0.959903 -0.905014,-1.672923 -1.853907,-1.672923 -0.06017,0 -0.126273,0 -0.191993,0.01115 -1.025693,0.104184 -1.766105,1.020229 -1.66192,2.045913 0.279719,2.671111 1.853913,5.035149 4.212355,6.318631 z m 8.260208,-8.946027 c 0.427873,-0.202899 0.822793,-0.477163 1.179312,-0.8280899 l 1.546708,-1.5468364 1.042134,1.0421644 c 0.9489,0.9488839 1.409587,2.2542689 1.272434,3.5871789 -0.148021,1.447976 -1.003608,2.73143 -2.281628,3.42799 l -2.753499,1.497401 v -7.174219 z m 19.658258,9.412412 c -0.669167,-4.623873 -4.316667,-7.19081 -8.139726,-7.399167 -0.0041,0.301637 -0.02197,0.597818 -0.05483,0.899457 -0.274128,2.627244 -1.486368,5.029703 -3.367648,6.795758 2.215866,3.098987 0.03304,6.197973 -5.605595,9.280619 -2.517513,1.376608 -5.720804,2.747907 -9.532809,4.119075 -0.296165,0.104073 -0.592351,0.21392 -0.893986,0.318107 -8.30967,2.912572 -15.1931472,3.735207 -14.4417231,9.982607 0.4880591,4.06434 3.5542211,6.713527 11.2659431,6.713527 0.6911,-1.672927 1.113495,-3.466514 1.283449,-5.353248 -0.274248,0.137127 -0.603251,0.202907 -0.943434,0.202907 -1.063935,0 -2.265162,-0.63624 -2.429807,-1.727825 -0.257786,-1.711195 2.375072,-3.192135 6.159558,-4.645688 2.780882,-1.069534 6.187075,-2.117147 9.532809,-3.236119 0.888548,-0.296168 1.777104,-0.597814 2.643747,-0.910475 10.690032,-3.795514 15.44546,-8.660562 14.518493,-15.045101 z m -37.549871,4.36054 c -0.553969,-2.769854 0.778795,-4.371441 0.778795,-4.371441 l 3.033205,5.090053 c -0.126228,0.05476 -3.548772,1.771528 -4.854164,5.227028 l 1.980014,1.305374 c 2.183053,-2.034887 4.755444,-3.680314 7.218207,-4.859614 v -4.903461 c -3.055145,-1.733273 -5.095485,-4.8377 -5.457566,-8.337028 -0.148024,-1.437074 0.384005,-2.786321 1.332897,-3.7352025 C 13.263627,11.1412 10.83382,14.020804 9.6820347,17.11979 L 7.6909888,14.530924 c -3.0879516,7.843368 -0.071228,12.297194 -0.071228,12.297194 l 1.75505,1.157221 1.3218712,0.872074 c 0.910484,-2.089641 2.237939,-3.515807 3.345875,-4.420847 z m 14.721432,1.063816 -3.866749,-2.106246 v 7.470388 c 4.036828,-1.491808 7.234528,-2.956249 9.510742,-4.354942 0.0041,0 0.01109,-0.01111 0.02197,-0.01111 0,-1.0201 0,-1.936174 0,-2.660222 l -3.04955,1.662053 -1.310988,0.713022 -1.31084,-0.713022 z m -3.614541,16.619578 -0.318133,3.565266 c -0.191994,2.166586 -0.6911,4.234281 -1.47548,6.154114 l -0.696528,1.694714 h -0.137132 c -0.06592,0.126279 -0.13171,0.257919 -0.19746,0.378586 -1.426047,2.577828 -2.912556,3.8888 -2.912556,3.8888 11.35933,0 15.017744,-6.099221 15.017744,-17.464034 v -1.42058 c -0.66374,0.21938 -1.327321,0.438734 -1.9856,0.652693 -2.100687,0.685627 -4.980287,1.629086 -7.294855,2.550441 z m 13.832837,-4.695364 c 3.521424,1.39866 3.274532,6.636708 -2.012835,6.889041 -0.191994,2.183066 -0.592354,4.398953 -1.360268,6.472214 6.576401,-1.371293 12.796288,-4.777348 12.275136,-9.390195 -0.526461,-4.651128 -5.457428,-5.331339 -8.902033,-3.97652 z"
     style="fill:#bd9e59;fill-opacity:1;stroke-width:1.36165" />
</svg>
