<?xml version="1.0" encoding="UTF-8" standalone="no"?>
<svg
   width="58"
   height="58"
   viewBox="0 0 58 58"
   fill="none"
   version="1.1"
   id="svg3"
   sodipodi:docname="Demacia_normal_1685076467-Demacia-gray.svg"
   inkscape:version="1.3 (0e150ed6c4, 2023-07-21)"
   xmlns:inkscape="http://www.inkscape.org/namespaces/inkscape"
   xmlns:sodipodi="http://sodipodi.sourceforge.net/DTD/sodipodi-0.dtd"
   xmlns="http://www.w3.org/2000/svg"
   xmlns:svg="http://www.w3.org/2000/svg">
  <defs
     id="defs3" />
  <sodipodi:namedview
     id="namedview3"
     pagecolor="#ffffff"
     bordercolor="#000000"
     borderopacity="0.25"
     inkscape:showpageshadow="2"
     inkscape:pageopacity="0.0"
     inkscape:pagecheckerboard="0"
     inkscape:deskcolor="#d1d1d1"
     showgrid="false"
     inkscape:zoom="4.0689655"
     inkscape:cx="29"
     inkscape:cy="28.877119"
     inkscape:window-width="1366"
     inkscape:window-height="705"
     inkscape:window-x="-8"
     inkscape:window-y="-8"
     inkscape:window-maximized="1"
     inkscape:current-layer="svg3" />
  <mask
     id="mask0_1824_2378"
     style="mask-type:luminance"
     maskUnits="userSpaceOnUse"
     x="11"
     y="5"
     width="36"
     height="48">
    <path
       d="M46.3242 5.9707H11.7561V52.1391H46.3242V5.9707Z"
       fill="white"
       id="path1" />
  </mask>
  <g
     mask="url(#mask0_1824_2378)"
     id="g3"
     style="fill:#bd9e59;fill-opacity:1"
     transform="matrix(1.2487997,0,0,1.2487997,-7.2640135,-7.2811279)">
    <path
       d="m 45.8283,28.896 c 0.1526,-0.0891 0.301,-0.1824 0.4494,-0.2756 0.1272,-1.5901 -0.017,-3.2945 -0.458,-5.0753 -0.7038,1.0091 -1.5306,1.7723 -2.2344,2.2133 -0.8437,0.5469 -1.5051,0.6614 -1.6197,0.4494 -0.2373,-0.4113 1.4459,-1.8698 2.756,-4.1848 0.1442,-0.2459 0.2714,-0.5003 0.3943,-0.7589 -0.8268,-2.2005 -2.086,-4.4901 -3.8202,-6.8009 l -6.2411,14.5769 c 1.9334,0.5258 3.6844,1.8359 2.9764,3.7438 -0.8098,2.1835 -7.0679,7.2291 -8.9886,8.7427 -1.9207,-1.5136 -8.183,-6.5592 -8.9887,-8.7427 -0.7037,-1.9037 1.0431,-3.218 2.9765,-3.7438 L 16.789,14.459 c -1.7341,2.3108 -2.9934,4.6003 -3.8201,6.8008 0.1229,0.2586 0.2501,0.5088 0.3943,0.759 1.3101,2.3149 2.9934,3.7777 2.7559,4.1848 -0.1144,0.212 -0.7759,0.0933 -1.6196,-0.4495 -0.708,-0.4409 -1.5306,-1.2041 -2.2345,-2.2132 -0.4451,1.785 -0.5935,3.4894 -0.4664,5.0795 0.1485,0.0932 0.2969,0.1907 0.4495,0.2756 1.9885,1.1617 3.7142,1.9249 3.6294,2.3276 -0.0425,0.2078 -0.5851,0.2883 -1.4034,0.1399 -0.6658,-0.1145 -1.5052,-0.3858 -2.3829,-0.8182 0.831,3.5106 3.1291,6.2835 6.6058,7.8057 3.5531,1.5517 6.4319,4.4264 7.7124,5.8468 h -0.0212 l -2.6457,2.6457 5.2914,5.2914 5.2914,-5.2914 -2.6457,-2.6457 h -0.0212 c 1.2805,-1.4204 4.1636,-4.2951 7.7124,-5.8468 3.4768,-1.5222 5.779,-4.2908 6.6058,-7.8057 -0.8776,0.4324 -1.7214,0.7037 -2.3828,0.8182 -0.814,0.1442 -1.361,0.0679 -1.4034,-0.1399 -0.0848,-0.407 1.6408,-1.1702 3.6293,-2.3276 z"
       fill="#A0A0A0"
       id="path2"
       style="fill:#bd9e59;fill-opacity:1" />
    <path
       d="M 34.8085,37.1553 C 32.5613,34.9081 31.5607,31.6985 32.133,28.5695 L 35.1477,12.1101 29.038,5.9707 22.9325,12.1101 25.947,28.5695 c 0.5724,3.129 -0.4282,6.3344 -2.6753,8.5858 l -6.08,6.0801 2.6456,2.6456 9.2007,-9.2006 9.2006,9.2006 2.6457,-2.6456 -6.0801,-6.0801 z"
       fill="#A0A0A0"
       id="path3"
       style="fill:#bd9e59;fill-opacity:1" />
  </g>
</svg>
