<?xml version="1.0" encoding="UTF-8" standalone="no"?>
<svg
   width="58"
   height="58"
   viewBox="0 0 58 58"
   fill="none"
   version="1.1"
   id="svg1"
   sodipodi:docname="Ixtal_normal_1693031585-Ixtal-gray.svg"
   inkscape:version="1.3 (0e150ed6c4, 2023-07-21)"
   xmlns:inkscape="http://www.inkscape.org/namespaces/inkscape"
   xmlns:sodipodi="http://sodipodi.sourceforge.net/DTD/sodipodi-0.dtd"
   xmlns="http://www.w3.org/2000/svg"
   xmlns:svg="http://www.w3.org/2000/svg">
  <defs
     id="defs1" />
  <sodipodi:namedview
     id="namedview1"
     pagecolor="#ffffff"
     bordercolor="#000000"
     borderopacity="0.25"
     inkscape:showpageshadow="2"
     inkscape:pageopacity="0.0"
     inkscape:pagecheckerboard="0"
     inkscape:deskcolor="#d1d1d1"
     inkscape:zoom="4.0689655"
     inkscape:cx="29"
     inkscape:cy="28.877119"
     inkscape:window-width="1366"
     inkscape:window-height="705"
     inkscape:window-x="-8"
     inkscape:window-y="-8"
     inkscape:window-maximized="1"
     inkscape:current-layer="svg1" />
  <path
     d="m 32.847665,19.494566 c 0,-0.22482 0.01653,-0.438768 0.04408,-0.65815 0.02744,-0.208488 0.07662,-0.416975 0.131562,-0.619878 0.85015,-3.027651 4.766502,-5.249113 11.008351,-5.846932 C 42.55609,5.420164 36.385449,0.204 28.997252,0.204 c -7.388221,0 -13.55871,5.216164 -15.034198,12.165606 6.384443,0.608853 10.328144,2.918005 11.057653,6.055419 0.03845,0.169948 0.0713,0.334583 0.09324,0.510132 0.02196,0.186433 0.03845,0.367404 0.03845,0.559409 0,2.062275 -1.755205,5.413627 -5.879907,7.958649 -3.230673,1.996525 -7.909348,3.493941 -14.3376325,3.493941 2.5504781,6.017021 7.2894755,10.876669 13.2241145,13.591652 l 0.09871,0.115201 10.745132,13.141991 10.745009,-13.141991 0.09866,-0.115201 c 5.929189,-2.709545 10.673631,-7.569198 13.218657,-13.591652 -14.639264,0 -20.217537,-7.78313 -20.217537,-11.458024 z m -7.997034,-8.748478 c -1.1518,-0.745985 -2.473678,-1.3713131 -3.949163,-1.8758545 1.952647,-2.3475731 4.89804,-3.8174793 8.101349,-3.8174793 3.203189,0 6.14313,1.4699062 8.101233,3.8174793 -1.475492,0.5045414 -2.797356,1.1298695 -3.949142,1.8758545 -1.886885,1.217703 -3.285582,2.747933 -4.152091,4.481209 -0.86118,-1.733276 -2.265322,-3.263506 -4.152186,-4.481209 z m 8.501731,34.818413 c -2.248851,-2.753382 -6.455809,-2.753382 -8.704654,0 l -9.220194,-11.277036 3.543343,-2.956447 6.625739,6.510684 3.400657,-4.267272 3.40077,4.267272 6.625734,-6.510684 3.543361,2.956447 -9.220214,11.277036 z"
     fill="#A0A0A0"
     id="path1"
     style="fill:#bd9e59;fill-opacity:1;stroke-width:1.36169" />
</svg>
