<?xml version="1.0" encoding="UTF-8" standalone="no"?>
<svg
   width="58"
   height="58"
   viewBox="0 0 58 58"
   fill="none"
   version="1.1"
   id="svg3"
   sodipodi:docname="Piltover_normal_1685076745-Piltover-gray.svg"
   inkscape:version="1.3 (0e150ed6c4, 2023-07-21)"
   xmlns:inkscape="http://www.inkscape.org/namespaces/inkscape"
   xmlns:sodipodi="http://sodipodi.sourceforge.net/DTD/sodipodi-0.dtd"
   xmlns="http://www.w3.org/2000/svg"
   xmlns:svg="http://www.w3.org/2000/svg">
  <defs
     id="defs3" />
  <sodipodi:namedview
     id="namedview3"
     pagecolor="#ffffff"
     bordercolor="#000000"
     borderopacity="0.25"
     inkscape:showpageshadow="2"
     inkscape:pageopacity="0.0"
     inkscape:pagecheckerboard="0"
     inkscape:deskcolor="#d1d1d1"
     showgrid="false"
     inkscape:zoom="4.0689655"
     inkscape:cx="29"
     inkscape:cy="28.877119"
     inkscape:window-width="1366"
     inkscape:window-height="705"
     inkscape:window-x="-8"
     inkscape:window-y="-8"
     inkscape:window-maximized="1"
     inkscape:current-layer="svg3" />
  <path
     id="path3"
     d="m 26.277691,17.454549 c -1.084438,-0.389207 -2.1077,-1.012064 -2.975208,-1.885252 -3.158842,-3.158841 -3.158842,-8.2863226 0,-11.4450261 L 19.420686,0.2424257 c -2.563873,2.5637988 -3.976379,5.978489 -3.976379,9.6042918 0,3.6259345 1.412506,7.0406335 3.976379,9.6043825 0.433676,0.433826 0.889754,0.828579 1.368031,1.190188 v 4.037405 l -5.488963,5.488962 v 11.606433 c -3.164366,-3.308919 -5.110781,-7.796864 -5.110781,-12.740846 0,-3.792734 1.14559,-7.313184 3.10318,-10.249453 l -7.4244618,-7.42986 c -1.3790751,1.774101 -2.5525604,3.70934 -3.4923538,5.783737 2.2967777,1.507089 3.4035741,4.410062 2.5136903,7.151784 -0.761888,2.346853 -2.7806707,3.926117 -5.07189898,4.254465 0,0.161128 -0.0111287,0.328069 -0.0111287,0.489327 0,1.957454 0.19464196,3.865072 0.5672463,5.71141 2.86953348,-0.300326 5.66137498,1.42918 6.58453328,4.282047 0.8008253,2.463784 -0.011269,5.060928 -1.8518393,6.656944 1.206761,1.701726 2.585976,3.270108 4.1209368,4.671551 2.1354379,-2.119013 5.5556499,-2.447076 8.0694099,-0.62299 2.163195,1.568388 3.014153,4.265639 2.352348,6.695867 2.107712,0.689539 4.326671,1.145588 6.61785,1.334608 V 17.454549 Z M 58.194,28.544048 c -2.285669,-0.322556 -4.309967,-1.907624 -5.071985,-4.254462 -0.889753,-2.741709 0.216918,-5.644695 2.513773,-7.151765 -0.939866,-2.068897 -2.113373,-4.00966 -3.492562,-5.783754 l -7.424202,7.42987 c 1.963126,2.930872 3.103182,6.456699 3.103182,10.249447 0,4.943976 -1.946407,9.426381 -5.110922,12.740846 V 30.167792 l -5.48896,-5.488968 v -4.015176 c 0.489488,-0.372662 0.956591,-0.778586 1.401441,-1.217946 5.294421,-5.294411 5.294421,-13.9143255 0,-19.208675 l -3.881784,3.8818608 c 3.158841,3.1587004 3.158841,8.2863232 0,11.4450182 -0.878574,0.878709 -1.913131,1.501557 -3.008619,1.890776 v 40.308291 c 2.291182,-0.189023 4.51017,-0.639569 6.618003,-1.334753 -0.661805,-2.430243 0.189023,-5.127492 2.352348,-6.695867 2.51376,-1.829614 5.928306,-1.501421 8.069546,0.62299 1.534834,-1.401456 2.91957,-2.969825 4.120808,-4.671567 -1.840806,-1.596003 -2.652825,-4.193163 -1.851993,-6.656792 0.928829,-2.852997 3.715014,-4.582528 6.584579,-4.282199 0.37267,-1.846319 0.567347,-3.753956 0.567347,-5.711401 0,-0.166947 -0.01108,-0.328205 -0.01108,-0.489336 z M 29.024776,14.067765 c 2.331224,0 4.221188,-1.889817 4.221188,-4.2210475 0,-2.3310905 -1.889964,-4.2208982 -4.221188,-4.2208982 -2.331215,0 -4.221033,1.8898077 -4.221033,4.2208982 0,2.3312305 1.889818,4.2210475 4.221033,4.2210475 z"
     style="fill:#bd9e59;fill-opacity:1;stroke-width:1.3806" />
</svg>
