<?xml version="1.0" encoding="UTF-8" standalone="no"?>
<svg
   width="58"
   height="58"
   viewBox="0 0 58 58"
   fill="none"
   version="1.1"
   id="svg3"
   sodipodi:docname="Ionia_normal_1685076626-Ionia-gray.svg"
   inkscape:version="1.3 (0e150ed6c4, 2023-07-21)"
   xmlns:inkscape="http://www.inkscape.org/namespaces/inkscape"
   xmlns:sodipodi="http://sodipodi.sourceforge.net/DTD/sodipodi-0.dtd"
   xmlns="http://www.w3.org/2000/svg"
   xmlns:svg="http://www.w3.org/2000/svg">
  <defs
     id="defs3" />
  <sodipodi:namedview
     id="namedview3"
     pagecolor="#ffffff"
     bordercolor="#000000"
     borderopacity="0.25"
     inkscape:showpageshadow="2"
     inkscape:pageopacity="0.0"
     inkscape:pagecheckerboard="0"
     inkscape:deskcolor="#d1d1d1"
     showgrid="false"
     inkscape:zoom="4.0689655"
     inkscape:cx="29"
     inkscape:cy="28.877119"
     inkscape:window-width="1366"
     inkscape:window-height="705"
     inkscape:window-x="-8"
     inkscape:window-y="-8"
     inkscape:window-maximized="1"
     inkscape:current-layer="svg3" />
  <path
     id="path3"
     d="m 44.763445,29.827999 c 0.5401,0.881712 1.763278,0.898267 2.380404,0.07166 C 54.213372,20.444151 46.890498,4.3873793 31.539078,0.26034953 30.194555,-0.10331854 29.483734,1.8142727 30.745613,2.4037789 33.225209,3.560942 35.456768,5.1920642 37.308137,7.1921499 37.78217,7.710092 37.159432,8.4871431 36.547764,8.1343236 35.638567,7.6165218 34.69093,7.1315488 33.70456,6.6907641 27.775587,4.0459183 21.609662,3.4231828 16.380428,4.541836 c -1.377483,0.2919414 -1.068986,2.3363507 0.336132,2.2591925 2.655921,-0.1433707 5.311846,0.2313372 7.824547,1.0799376 0.633674,0.2149192 0.517935,1.1570942 -0.154317,1.1956729 -2.270127,0.1212094 -4.601011,0.5015248 -6.942843,1.173785 -3.923282,1.123989 -9.3452634,3.625604 -11.2517745,6.970338 -0.6667862,1.179128 0.5068613,2.022108 1.6970629,1.482271 3.4439226,-2.110482 7.4829476,-3.218051 11.6486526,-3.063734 10.766812,-0.02197 20.823054,7.031064 25.22009,14.1887 z m -0.291658,17.73126 c -6.347756,5.212809 -14.927049,5.741697 -21.302413,1.92868 -0.760373,-0.45187 -1.867798,0.341602 -1.515262,1.157094 3.895656,8.99819 15.79767,8.86043 23.214404,3.096706 6.678389,-5.18504 11.031379,-15.654421 8.485726,-23.385124 -0.369237,-1.12973 -2.104886,-0.710974 -1.961645,0.473749 0.716294,6.033643 -1.691593,12.436516 -6.92081,16.728895 z M 11.283634,40.688513 c -0.198367,-7.796783 4.66723,-14.546705 11.604455,-17.103455 0.826581,-0.303165 0.832193,-1.476802 0.02195,-1.81295 C 18.342138,19.88763 13.57586,19.942767 9.8178344,22.378292 2.7042203,26.99026 1.8997816,38.390881 8.0270598,47.8408 c 2.9976652,4.623053 7.1026302,7.923601 11.3400192,9.543776 1.10211,0.418766 1.856852,-1.162714 0.832052,-1.752342 -5.196064,-2.980962 -8.755582,-8.524287 -8.915507,-14.949182 z"
     style="fill:#bd9e59;fill-opacity:1;stroke-width:1.36813" />
</svg>
