<?xml version="1.0" encoding="UTF-8" standalone="no"?>
<svg
   width="58"
   height="58"
   viewBox="0 0 58 58"
   fill="none"
   version="1.1"
   id="svg3"
   sodipodi:docname="ShadowIsles_normal_1685076156-Shadow Isles-gray.svg"
   inkscape:version="1.3 (0e150ed6c4, 2023-07-21)"
   xmlns:inkscape="http://www.inkscape.org/namespaces/inkscape"
   xmlns:sodipodi="http://sodipodi.sourceforge.net/DTD/sodipodi-0.dtd"
   xmlns="http://www.w3.org/2000/svg"
   xmlns:svg="http://www.w3.org/2000/svg">
  <defs
     id="defs3" />
  <sodipodi:namedview
     id="namedview3"
     pagecolor="#ffffff"
     bordercolor="#000000"
     borderopacity="0.25"
     inkscape:showpageshadow="2"
     inkscape:pageopacity="0.0"
     inkscape:pagecheckerboard="0"
     inkscape:deskcolor="#d1d1d1"
     showgrid="false"
     inkscape:zoom="4.0689655"
     inkscape:cx="29"
     inkscape:cy="28.877119"
     inkscape:window-width="1366"
     inkscape:window-height="705"
     inkscape:window-x="-8"
     inkscape:window-y="-8"
     inkscape:window-maximized="1"
     inkscape:current-layer="svg3" />
  <path
     id="path3"
     d="m 50.227294,28.078497 c -0.180936,-1.469696 -0.515441,-2.780391 -0.959711,-3.964864 -2.089164,9.519766 -10.364129,16.626614 -20.262113,16.626614 -9.898119,0 -18.172838,-7.112281 -20.2622778,-16.626614 -0.4441094,1.184473 -0.7784853,2.495168 -0.9595601,3.964864 -0.5703175,4.639189 2.7253789,10.41888 7.4084109,13.944933 8.505208,6.399424 10.594515,6.15817 10.501255,7.106843 -0.06011,0.619596 -0.937641,1.535327 -2.061945,1.414702 -1.398216,-0.224789 -3.037839,-1.140496 -4.902223,-1.793057 l 1.864384,4.200539 c 0.778628,1.754639 8.406497,4.836598 8.406497,4.836598 0,0 7.627752,-3.081959 8.406509,-4.836598 l 1.864379,-4.200539 c -1.858948,0.652561 -3.498678,1.568268 -4.902346,1.793057 -1.124181,0.120619 -2.00163,-0.789643 -2.061959,-1.414702 -0.09336,-0.943227 1.996061,-0.707419 10.501399,-7.106843 4.682895,-3.526053 7.978581,-9.305744 7.408404,-13.944933 z m -3.794687,-7.029934 c 0,0 2.818512,-2.878958 0.953996,-7.677161 C 45.094568,7.4656455 36.62763,6.346794 36.62763,6.346794 c 0,0 8.022705,6.734081 9.804977,14.701769 z m -29.672295,9.262196 c 1.200951,-1.266574 2.670523,-2.341465 4.337481,-3.164059 -0.131517,0.537507 -0.208293,1.096796 -0.208293,1.678009 0,4.156684 3.635649,7.523738 8.11584,7.523738 3.701545,0 6.816305,-2.297751 7.792321,-5.439882 -0.838931,0.789665 -2.007068,1.277603 -3.301125,1.277603 -2.560919,0 -4.639195,-1.924694 -4.639195,-4.304552 0,-0.948784 0.334362,-1.820684 0.893802,-2.528103 5.017545,0.197414 9.420923,2.385438 12.118923,5.659219 0.175496,-0.24671 0.345417,-0.498976 0.498999,-0.756711 2.286706,-3.833061 1.908351,-8.444908 -0.537374,-12.316349 -0.367321,-0.581345 -0.784212,-1.146094 -1.2448,-1.694476 -0.828033,-0.778642 -1.606668,-1.530019 -2.35246,-2.270262 C 32.290129,8.079938 29.00534,3.4079374 29.00534,0.210945 c 0,0 -5.017412,4.4361952 -7.627749,10.726032 -1.052823,2.538982 -1.716402,5.374095 -1.497075,8.346171 0,0 -2.906316,-4.140076 -4.491061,-6.673623 -5.6975937,7.205554 -2.484266,14.997909 1.370857,17.701234 z"
     style="fill:#bd9e59;fill-opacity:1;stroke-width:1.36159" />
</svg>
