<?xml version="1.0" encoding="UTF-8" standalone="no"?>
<svg
   width="58"
   height="58"
   viewBox="0 0 58 58"
   fill="none"
   version="1.1"
   id="svg5"
   sodipodi:docname="Void_normal_1685076077-Void-gray.svg"
   inkscape:version="1.3 (0e150ed6c4, 2023-07-21)"
   xmlns:inkscape="http://www.inkscape.org/namespaces/inkscape"
   xmlns:sodipodi="http://sodipodi.sourceforge.net/DTD/sodipodi-0.dtd"
   xmlns="http://www.w3.org/2000/svg"
   xmlns:svg="http://www.w3.org/2000/svg">
  <defs
     id="defs5" />
  <sodipodi:namedview
     id="namedview5"
     pagecolor="#ffffff"
     bordercolor="#000000"
     borderopacity="0.25"
     inkscape:showpageshadow="2"
     inkscape:pageopacity="0.0"
     inkscape:pagecheckerboard="0"
     inkscape:deskcolor="#d1d1d1"
     showgrid="false"
     inkscape:zoom="4.0689655"
     inkscape:cx="29"
     inkscape:cy="28.877119"
     inkscape:window-width="1366"
     inkscape:window-height="705"
     inkscape:window-x="-8"
     inkscape:window-y="-8"
     inkscape:window-maximized="1"
     inkscape:current-layer="svg5" />
  <mask
     id="mask0_1824_2330"
     style="mask-type:luminance"
     maskUnits="userSpaceOnUse"
     x="10"
     y="7"
     width="40"
     height="44">
    <path
       d="M49.8529 7.47949H10.1431V50.5163H49.8529V7.47949Z"
       fill="white"
       id="path1" />
  </mask>
  <g
     mask="url(#mask0_1824_2330)"
     id="g5"
     style="fill:#bd9e59;fill-opacity:1"
     transform="matrix(1.3298858,0,0,1.3298858,-10.893664,-9.5645397)">
    <path
       d="m 40.9072,29.8781 c -1.7561,-1.015 -3.9996,-0.4109 -5.0106,1.3412 -1.015,1.7562 -0.4109,3.9996 1.3413,5.0146 1.7561,1.015 3.9995,0.4108 5.0145,-1.3413 1.015,-1.7561 0.4108,-3.9995 -1.3412,-5.0105 z"
       fill="#A0A0A0"
       id="path2"
       style="fill:#bd9e59;fill-opacity:1" />
    <path
       d="m 19.8015,16.0507 c 0,2.026 1.6433,3.6693 3.6693,3.6693 2.026,0 3.6693,-1.6433 3.6693,-3.6693 0,-2.026 -1.6433,-3.6694 -3.6693,-3.6694 -2.026,0 -3.6693,1.6434 -3.6693,3.6694 z"
       fill="#A0A0A0"
       id="path3"
       style="fill:#bd9e59;fill-opacity:1" />
    <path
       d="m 18.3798,41.2405 c 1.7562,-1.015 2.3563,-3.2585 1.3413,-5.0105 -1.015,-1.7562 -3.2585,-2.3563 -5.0146,-1.3413 -1.7561,1.015 -2.3562,3.2584 -1.3412,5.0146 1.015,1.7561 3.2584,2.3562 5.0145,1.3412 z"
       fill="#A0A0A0"
       id="path4"
       style="fill:#bd9e59;fill-opacity:1" />
    <path
       d="m 46.377,22.1812 c -2.1307,-1.599 -4.6763,-2.0622 -7.0164,-1.5869 l 0.012,-0.0121 -14.1052,2.6865 c -0.3746,0.0725 -0.7573,0.1168 -1.1399,0.1369 0,0 0.0081,-0.004 0.0121,-0.0079 -0.2175,0.0201 -0.439,0.0321 -0.6646,0.0321 -4.072,0 -7.3829,-3.3108 -7.3829,-7.3829 0,-4.0721 3.3068,-7.37886 7.3789,-7.37886 0.004,0 0.0121,0 0.0161,0 -1.599,-0.93042 -3.5122,-1.3775 -5.5463,-1.11167 -3.923,0.5075 -7.0646,3.67733 -7.54,7.60443 -0.3182,2.6422 0.5518,5.079 2.1348,6.8714 h -0.0161 l 9.3806,10.8669 c 0.2498,0.29 0.4794,0.5962 0.6888,0.9183 0,0 -0.0081,0 -0.0121,0 0.1249,0.1813 0.2497,0.3625 0.3625,0.5599 2.034,3.5243 0.8217,8.0516 -2.7026,10.0856 -3.5243,2.034 -8.0516,0.8217 -10.0855,-2.7026 0,-0.0041 -0.0041,-0.0081 -0.0081,-0.0122 -0.0041,1.8488 0.5639,3.7258 1.8084,5.3571 2.4047,3.1416 6.7184,4.2814 10.3555,2.7267 2.4488,-1.0472 4.1244,-3.0167 4.8856,-5.2845 v 0.0162 l 4.7327,-13.5615 c 0.1248,-0.3625 0.2779,-0.713 0.4511,-1.0553 0,0 0,0.008 0,0.0121 0.0926,-0.2015 0.1893,-0.3987 0.3021,-0.5921 2.034,-3.5244 6.5613,-4.7366 10.0855,-2.7027 3.5243,2.034 4.7367,6.5613 2.7027,10.0856 0,0.004 -0.0041,0.0081 -0.008,0.0121 1.603,-0.9183 2.9483,-2.3522 3.7337,-4.2453 1.5184,-3.6532 0.3504,-7.9588 -2.8154,-10.3312 z"
       fill="#A0A0A0"
       id="path5"
       style="fill:#bd9e59;fill-opacity:1" />
  </g>
</svg>
