<?xml version="1.0" encoding="UTF-8" standalone="no"?>
<svg
   width="58"
   height="58"
   viewBox="0 0 58 58"
   fill="none"
   version="1.1"
   id="svg4"
   sodipodi:docname="Yordle_normal_1685076640-Yordle-gray.svg"
   inkscape:version="1.3 (0e150ed6c4, 2023-07-21)"
   xmlns:inkscape="http://www.inkscape.org/namespaces/inkscape"
   xmlns:sodipodi="http://sodipodi.sourceforge.net/DTD/sodipodi-0.dtd"
   xmlns="http://www.w3.org/2000/svg"
   xmlns:svg="http://www.w3.org/2000/svg">
  <defs
     id="defs4" />
  <sodipodi:namedview
     id="namedview4"
     pagecolor="#ffffff"
     bordercolor="#000000"
     borderopacity="0.25"
     inkscape:showpageshadow="2"
     inkscape:pageopacity="0.0"
     inkscape:pagecheckerboard="0"
     inkscape:deskcolor="#d1d1d1"
     showgrid="false"
     inkscape:zoom="4.0689655"
     inkscape:cx="29"
     inkscape:cy="28.877119"
     inkscape:window-width="1366"
     inkscape:window-height="705"
     inkscape:window-x="-8"
     inkscape:window-y="-8"
     inkscape:window-maximized="1"
     inkscape:current-layer="svg4" />
  <mask
     id="mask0_1824_2354"
     style="mask-type:luminance"
     maskUnits="userSpaceOnUse"
     x="8"
     y="8"
     width="42"
     height="42">
    <path
       d="M49.183 8.15234H8.81665V49.8479H49.183V8.15234Z"
       fill="white"
       id="path1" />
  </mask>
  <g
     mask="url(#mask0_1824_2354)"
     id="g4"
     style="fill:#bd9e59;fill-opacity:1"
     transform="matrix(1.3741075,0,0,1.3741075,-10.851728,-10.849282)">
    <path
       d="m 27.4691,16.0226 c 2.9605,0.1732 5.365,2.4408 5.6187,5.1917 0.2619,2.8397 -1.9091,5.1435 -4.8575,5.1999 v -0.0201 c -1.023,0 -1.8527,-0.7935 -1.8527,-1.7723 0,-0.9787 0.8297,-1.7721 1.8527,-1.7721 1.0231,0 1.8528,-0.7654 1.8528,-1.7723 0,-1.4177 -1.2485,-2.6623 -3.3793,-2.6623 -1.7762,0 -3.3471,0.6847 -4.495,1.7883 -1.3291,1.2808 -2.0864,3.1256 -1.9011,5.1596 0.3464,3.7781 4.0359,6.8633 8.1039,6.8633 5.3368,0 9.6304,-4.2573 9.6304,-9.3807 0,-5.1233 -4.3943,-9.3847 -9.8157,-9.3847 -2.2072,0 -2.5335,0.6565 -2.5898,1.2647 -0.0564,0.6042 0.2416,1.2003 1.8286,1.293 z"
       fill="#A0A0A0"
       id="path2"
       style="fill:#bd9e59;fill-opacity:1" />
    <path
       d="m 35.4766,45.7315 c 5.8241,2.6986 8.6757,1.8528 13.7065,-6.4081 -9.566,-1.438 -12.0431,0.2094 -13.7065,6.4081 z"
       fill="#A0A0A0"
       id="path3"
       style="fill:#bd9e59;fill-opacity:1" />
    <path
       d="m 39.5809,36.1897 c 8.3415,-6.0094 9.5298,-13.6944 1.1479,-23.2604 0.3061,-0.6163 0.427,-1.3413 0.282,-2.1065 -0.2739,-1.41781 -1.4822,-2.51339 -2.9161,-2.65436 -2.0059,-0.19736 -3.6894,1.39358 -3.6492,3.36716 0.0323,1.6394 1.3131,3.0491 2.9403,3.2263 0.4793,0.0524 0.9425,0 1.3695,-0.1329 l 1.5345,2.4529 c 3.037,4.8535 1.9374,11.2134 -2.5496,14.7659 l -8.7403,5.6026 -8.7402,-5.6026 C 15.7728,28.2953 14.6732,21.9354 17.7101,17.0819 l 1.5346,-2.4529 c 0.427,0.1329 0.8901,0.1853 1.3695,0.1329 1.6271,-0.1813 2.912,-1.591 2.9402,-3.2303 0.0403,-1.96958 -1.6473,-3.56052 -3.6491,-3.36316 -1.434,0.14097 -2.6423,1.24056 -2.9161,2.65436 -0.1491,0.7652 -0.0243,1.4862 0.2819,2.1065 -8.38181,9.566 -7.1937,17.2469 1.1479,23.2604 0,0 8.6758,5.5019 9.8318,6.4767 1.152,0.9747 1.587,2.6785 0.7532,4.0036 l -7.101,-2.9201 c -1.7118,-4.5555 -4.6319,-5.6994 -13.0822,-4.4266 4.6038,7.5642 7.387,8.9095 12.2928,7.0123 l 4.8413,2.8598 c 2.3039,1.3614 5.3047,0.5316 6.5291,-1.8488 1.0875,-2.1105 1.3131,-4.6077 0.1571,-6.678 2.9282,-1.9333 6.9398,-4.4789 6.9398,-4.4789 z"
       fill="#A0A0A0"
       id="path4"
       style="fill:#bd9e59;fill-opacity:1" />
  </g>
</svg>
