<?xml version="1.0" encoding="UTF-8" standalone="no"?>
<svg
   width="58"
   height="58"
   viewBox="0 0 58 58"
   fill="none"
   version="1.1"
   id="svg7"
   sodipodi:docname="Zaun_normal_1685076666-Zaun-gray.svg"
   inkscape:version="1.3 (0e150ed6c4, 2023-07-21)"
   xmlns:inkscape="http://www.inkscape.org/namespaces/inkscape"
   xmlns:sodipodi="http://sodipodi.sourceforge.net/DTD/sodipodi-0.dtd"
   xmlns="http://www.w3.org/2000/svg"
   xmlns:svg="http://www.w3.org/2000/svg">
  <defs
     id="defs7" />
  <sodipodi:namedview
     id="namedview7"
     pagecolor="#ffffff"
     bordercolor="#000000"
     borderopacity="0.25"
     inkscape:showpageshadow="2"
     inkscape:pageopacity="0.0"
     inkscape:pagecheckerboard="0"
     inkscape:deskcolor="#d1d1d1"
     showgrid="false"
     inkscape:zoom="4.0689655"
     inkscape:cx="29"
     inkscape:cy="28.877119"
     inkscape:window-width="1366"
     inkscape:window-height="705"
     inkscape:window-x="-8"
     inkscape:window-y="-8"
     inkscape:window-maximized="1"
     inkscape:current-layer="svg7" />
  <path
     id="path7"
     d="m 27.190051,46.364193 c 0.422072,0.679702 1.211467,1.052462 2.011757,1.052462 h 1.469235 c 0.542779,0 0.981322,-0.438384 0.981322,-0.981164 0,-0.92646 -0.498952,-1.781707 -1.310291,-2.236587 -1.715839,-0.953952 -4.533453,-2.527153 -4.840504,-2.702743 -0.444103,-0.252066 -0.65236,-0.877043 -0.367341,-1.348519 0.84983,-1.430724 -0.822202,-3.020542 -2.209097,-2.105107 l -2.061294,1.359667 c -1.156734,0.761924 -1.112768,2.477769 0.08769,3.173937 0,0 1.37042,0.71808 4.144351,2.170851 1.19498,0.624992 1.798077,1.13484 2.094078,1.617203 z M 40.664713,29.33152 c 0,0 -1.880252,-0.981168 -5.673725,-2.971139 -2.823214,-1.480128 -3.228946,-3.952473 -3.250722,-5.125683 h -5.723147 v 2.817626 c 0,1.271896 0.685145,2.444974 1.797931,3.064504 2.346442,1.304696 6.200193,3.453633 6.616807,3.694815 0.602933,0.345274 0.888083,1.200562 0.504264,1.847476 -1.16219,1.957015 1.12394,4.13331 3.026119,2.883487 l 2.823216,-1.863828 c 1.584223,-1.047156 1.518501,-3.387877 -0.115094,-4.347258 z M 36.755839,37.593123 24.174689,30.9819 c -0.767353,-0.405595 -0.718081,-1.523956 0.0821,-1.858351 l 0.630568,-0.263089 c 1.485571,-0.619541 1.041464,-2.834216 -0.564695,-2.834216 h -2.943693 c -3.974348,0 -5.421687,5.240787 -2.000843,7.274596 5.147422,3.06435 10.30589,6.128858 11.868341,7.027829 0.58649,0.334417 0.767506,1.096443 0.400154,1.66102 -0.838676,1.288337 0.597484,2.850539 1.951584,2.115982 1.05808,-0.570145 2.159978,-1.167614 3.190408,-1.726746 1.907755,-1.036137 1.891291,-3.77714 -0.03291,-4.785802 z M 55.679671,20.368544 C 55.060255,19.157078 55.109527,17.600188 57.472274,16.843597 56.183935,14.453486 52.269846,8.5329894 43.591885,8.4946075 41.103109,2.7495702 36.865522,0.74315923 35.319664,0.22237286 L 33.559988,3.637617 c 2.050249,0.6083829 5.619029,3.7167149 5.882106,8.568269 -2.828636,0.515278 -4.983002,2.998629 -4.983002,5.975334 0,3.349523 2.724367,6.079491 6.079332,6.079491 3.354936,0 5.854882,-2.516147 6.057686,-5.684791 2.066738,0.811315 3.881128,2.582022 5.454491,6.057562 3.738616,8.272235 -5.77243,15.415215 -5.235217,16.593868 0.531609,1.178525 16.254024,-6.392093 8.864287,-20.858806 z m -15.141247,0.65222 c -1.56778,0 -2.84498,-1.277195 -2.84498,-2.839544 0,-1.562321 1.2772,-2.845111 2.84498,-2.845111 1.567909,0 2.845228,1.277326 2.845228,2.845111 0,1.567933 -1.277319,2.839544 -2.845228,2.839544 z m -16.999595,-2.84485 c 0,-2.976728 -2.15427,-5.454482 -4.983027,-5.975353 0.268676,-4.8515365 3.837285,-7.9597334 5.882123,-8.5682498 L 22.678243,0.21706487 C 21.132246,0.73785142 16.894776,2.7387231 14.406007,8.489299 5.7280433,8.52768 1.8138816,14.448186 0.5256487,16.838305 c 2.3572863,0.762042 2.4066239,2.318933 1.7926332,3.52493 -7.3842149,14.46141 8.3324941,22.037348 8.8642521,20.858692 0.531892,-1.178532 -8.9794109,-8.321514 -5.23523,-16.593756 1.573356,-3.480987 3.3877525,-5.246229 5.454479,-6.057543 0.2028,3.168611 2.839674,5.684764 6.057561,5.684764 3.217904,0 6.079485,-2.724507 6.079485,-6.079478 z m -6.079485,2.839676 c -1.567785,0 -2.84511,-1.277325 -2.84511,-2.839676 0,-1.562319 1.277325,-2.845103 2.84511,-2.845103 1.567899,0 2.84524,1.277325 2.84524,2.845103 0,1.56791 -1.277341,2.839676 -2.84524,2.839676 z m 15.908743,28.456641 h -8.738272 c -0.438524,0.83325 -0.526175,1.003088 -0.970279,1.836309 l 3.914202,5.723161 c 0.345292,0.504403 0.893519,0.756591 1.44162,0.751148 0.548218,0.004 1.096434,-0.241321 1.441869,-0.751148 L 34.371296,51.30854 C 33.932761,50.475319 33.84498,50.305481 33.401012,49.472231 h -0.0386 z m -4.368936,-31.291011 5.47639,-5.926064 c -1.721296,-3.278199 -5.47639,-2.993062 -5.47639,-2.993062 0,0 -3.755239,-0.285137 -5.476544,2.993062 z"
     style="fill:#bd9e59;fill-opacity:1;stroke-width:1.36123" />
</svg>
